<svg xmlns="http://www.w3.org/2000/svg" width="78" height="29" viewBox="0 0 78 29">
  <g fill="none" transform="matrix(1 0 0 -1 .458 28.115)">
    <path fill="#696A6A" d="M0.620104205,3.78645833 L1.19718754,3.78645833 L0.660937538,1.54666667 C0.581354205,1.214375 0.596354205,0.964166667 0.706354205,0.797291667 C0.815937538,0.630208333 1.01989587,0.546666667 1.31802087,0.546666667 C1.61427087,0.546666667 1.85718754,0.630208333 2.0469792,0.797291667 C2.2369792,0.964166667 2.37177087,1.214375 2.4513542,1.54666667 L2.98739587,3.78645833 L3.5719792,3.78645833 L3.0226042,1.49125 C2.9032292,0.9925 2.69052087,0.619166667 2.38593754,0.371666667 C2.08114587,0.12375 1.68156254,0 1.18718754,0 C0.692395871,0 0.353020871,0.123541667 0.168229205,0.370416667 C-0.0167707954,0.617083333 -0.0490624621,0.990833333 0.0707292046,1.49125 L0.620104205,3.78645833 Z" transform="translate(0 .05)"/>
    <path fill="#696A6A" d="M0,0.143125 L0.917916667,3.9775 L2.66208333,1.72270833 C2.70875,1.65916667 2.75583333,1.59104167 2.80229167,1.51875 C2.84875,1.44645833 2.89625,1.36520833 2.945,1.274375 L3.55729167,3.83145833 L4.0975,3.83145833 L3.18020833,-1.38777878e-16 L1.399375,2.295 C1.35166667,2.356875 1.30729167,2.42229167 1.26583333,2.49125 C1.22395833,2.56020833 1.18625,2.6325 1.15166667,2.70791667 L0.537708333,0.143125 L0,0.143125 Z" transform="translate(3.494 .006)"/>
    <polygon fill="#696A6A" points="0 0 .883 3.688 1.467 3.688 .584 0" transform="translate(7.544 .149)"/>
    <polygon fill="#696A6A" points="0 0 .883 3.688 2.889 3.688 2.767 3.18 1.345 3.18 1.125 2.26 2.547 2.26 2.421 1.734 .999 1.734 .584 0" transform="translate(8.968 .149)"/>
    <polygon fill="#696A6A" points="0 0 .883 3.688 1.467 3.688 .584 0" transform="translate(11.618 .149)"/>
    <polygon fill="#696A6A" points="0 0 .883 3.688 2.889 3.688 2.767 3.18 1.345 3.18 1.124 2.255 2.546 2.255 2.42 1.728 .998 1.728 .713 .537 2.135 .537 2.006 0" transform="translate(13.043 .149)"/>
    <path fill="#696A6A" d="M0.713958333,0.541875 L1.20520833,0.541875 C1.47520833,0.541875 1.68229167,0.560416667 1.82625,0.597291667 C1.97020833,0.634166667 2.10229167,0.696458333 2.22333333,0.78375 C2.38770833,0.902708333 2.525,1.05104167 2.63541667,1.22833333 C2.745625,1.40541667 2.82916667,1.611875 2.88541667,1.84708333 C2.94145833,2.08229167 2.956875,2.288125 2.93145833,2.465 C2.90583333,2.6425 2.83958333,2.790625 2.73229167,2.91 C2.65166667,2.99708333 2.54520833,3.05958333 2.41229167,3.09666667 C2.27916667,3.13333333 2.0625,3.151875 1.76125,3.151875 L1.55,3.151875 L1.33875,3.151875 L0.713958333,0.541875 Z M-9.25185854e-17,0 L0.882916667,3.68854167 L1.67104167,3.68854167 C2.18354167,3.68854167 2.53770833,3.66229167 2.73395833,3.609375 C2.92979167,3.55625 3.09166667,3.4675 3.21895833,3.34333333 C3.38791667,3.18041667 3.49541667,2.97125 3.54166667,2.71625 C3.58770833,2.46083333 3.57145833,2.169375 3.493125,1.841875 C3.41479167,1.514375 3.29166667,1.22416667 3.12375,0.971458333 C2.95625,0.718541667 2.74854167,0.51 2.50145833,0.345416667 C2.31458333,0.221041667 2.11416667,0.1325 1.90125,0.079375 C1.68770833,0.0266666667 1.369375,0 0.945208333,0 L0.787916667,0 L-9.25185854e-17,0 Z" transform="translate(15.72 .149)"/>
    <path fill="#696A6A" d="M1.098125,2.14645833 L1.248125,2.14645833 C1.57208333,2.14645833 1.796875,2.18291667 1.92229167,2.255 C2.04791667,2.32708333 2.13229167,2.45479167 2.17604167,2.63791667 C2.223125,2.834375 2.19875,2.973125 2.1025,3.05354167 C2.00625,3.13416667 1.80375,3.17479167 1.494375,3.17479167 L1.344375,3.17479167 L1.098125,2.14645833 Z M0.94375,1.655625 L0.5475,0 L0,0 L0.883125,3.68833333 L1.76708333,3.68833333 C2.02895833,3.68833333 2.21833333,3.67375 2.335,3.644375 C2.45125,3.61520833 2.54729167,3.56666667 2.623125,3.499375 C2.71541667,3.41375 2.77604167,3.29833333 2.80520833,3.153125 C2.83416667,3.00770833 2.82791667,2.84770833 2.78625,2.67333333 C2.74416667,2.49854167 2.67375,2.33729167 2.57458333,2.189375 C2.47541667,2.04166667 2.35916667,1.925625 2.22625,1.841875 C2.11833333,1.77458333 1.999375,1.72666667 1.86895833,1.69833333 C1.73833333,1.66958333 1.54229167,1.655625 1.28041667,1.655625 L1.16520833,1.655625 L0.94375,1.655625 Z" transform="translate(20.96 .149)"/>
    <path fill="#696A6A" d="M1.59416667,1.44854167 L2.59604167,1.44854167 L2.42875,2.29020833 C2.42083333,2.34375 2.41333333,2.40541667 2.406875,2.47520833 C2.40083333,2.545 2.39666667,2.62270833 2.39395833,2.70833333 C2.35520833,2.62770833 2.31625,2.5525 2.27729167,2.48270833 C2.23854167,2.413125 2.20083333,2.34895833 2.16375,2.29020833 L1.59416667,1.44854167 Z M2.86333333,0 L2.68270833,0.949791667 L1.25833333,0.949791667 L0.613541667,0 L0,0 L2.65854167,3.834375 L3.47958333,0 L2.86333333,0 Z" transform="translate(22.874 .149)"/>
    <path fill="#696A6A" d="M0.327916667,0 L0.731666667,1.688125 L-4.62592927e-17,3.68833333 L0.613958333,3.68833333 L1.068125,2.43625 C1.07854167,2.40416667 1.09104167,2.36229167 1.10541667,2.31020833 C1.12,2.258125 1.13416667,2.20208333 1.1475,2.14145833 C1.18416667,2.20020833 1.221875,2.25604167 1.25958333,2.30791667 C1.29729167,2.36 1.33541667,2.40770833 1.37395833,2.45145833 L2.44333333,3.68833333 L3.02791667,3.68833333 L1.31125,1.688125 L0.907291667,0 L0.327916667,0 Z" transform="translate(26.863 .149)"/>
    <path fill="#696A6A" d="M3.714375,1.97041667 C3.71458333,1.99895833 3.72291667,2.07770833 3.73916667,2.20708333 C3.75166667,2.31458333 3.76145833,2.40375 3.76854167,2.474375 C3.73375,2.39020833 3.69270833,2.30604167 3.645625,2.22229167 C3.59833333,2.13833333 3.54416667,2.05270833 3.48229167,1.96520833 L2.07125,0 L1.61083333,2.00541667 C1.59125,2.08791667 1.57625,2.16770833 1.56625,2.24479167 C1.55625,2.32208333 1.549375,2.39854167 1.54604167,2.474375 C1.52604167,2.396875 1.500625,2.31604167 1.46958333,2.23104167 C1.43854167,2.14625 1.40145833,2.0575 1.35791667,1.96520833 L0.5375,0.14875 L0,0.14875 L1.76979167,3.99354167 L2.27354167,1.66541667 C2.28083333,1.62854167 2.29145833,1.56708333 2.304375,1.48145833 C2.31729167,1.39583333 2.3325,1.29 2.35020833,1.16416667 C2.40979167,1.27 2.495625,1.40416667 2.60854167,1.56708333 C2.63854167,1.61083333 2.66145833,1.644375 2.676875,1.66791667 L4.27,3.99354167 L4.21895833,0.14875 L3.67604167,0.14875 L3.714375,1.97041667 Z" transform="translate(29.052)"/>
    <polygon fill="#696A6A" points="0 0 .883 3.688 2.889 3.688 2.768 3.18 1.345 3.18 1.124 2.255 2.546 2.255 2.42 1.728 .998 1.728 .713 .537 2.135 .537 2.006 0" transform="translate(33.738 .149)"/>
    <path fill="#696A6A" d="M0,0.143125 L0.917916667,3.9775 L2.66208333,1.72270833 C2.70875,1.65916667 2.75583333,1.59104167 2.80229167,1.51875 C2.84875,1.44645833 2.89625,1.36520833 2.945,1.274375 L3.55729167,3.83145833 L4.09770833,3.83145833 L3.18020833,-1.38777878e-16 L1.399375,2.295 C1.35166667,2.356875 1.30729167,2.42229167 1.26583333,2.49125 C1.22395833,2.56020833 1.18625,2.6325 1.15166667,2.70791667 L0.537708333,0.143125 L0,0.143125 Z" transform="translate(36.415 .006)"/>
    <polygon fill="#696A6A" points="1.54 3.18 .779 0 .194 0 .955 3.18 0 3.18 .122 3.688 2.612 3.688 2.49 3.18" transform="translate(40.837 .149)"/>
    <path fill="#696A6A" d="M0.000127840909,0.836458333 L0.519711174,1.05791667 C0.524919508,0.893541667 0.575752841,0.767916667 0.672836174,0.681458333 C0.769919508,0.594791667 0.910127841,0.551666667 1.09387784,0.551666667 C1.26721117,0.551666667 1.41721117,0.60125 1.54304451,0.700416667 C1.66908617,0.799375 1.75221117,0.932083333 1.79200284,1.09833333 C1.84387784,1.31520833 1.71450284,1.50833333 1.40512784,1.67770833 C1.36179451,1.70291667 1.32846117,1.72145833 1.30554451,1.73333333 C0.956586174,1.93145833 0.735336174,2.11083333 0.642002841,2.27125 C0.548877841,2.43166667 0.529711174,2.62770833 0.585127841,2.859375 C0.657002841,3.16 0.814919508,3.40354167 1.05846117,3.59 C1.30200284,3.77645833 1.58491951,3.86979167 1.90762784,3.86979167 C2.17283617,3.86979167 2.38221117,3.81729167 2.53533617,3.71229167 C2.68866951,3.60708333 2.77616951,3.45645833 2.79783617,3.26 L2.28346117,3.018125 C2.23887784,3.13395833 2.18012784,3.21875 2.10721117,3.27270833 C2.03408617,3.32645833 1.94158617,3.35333333 1.83054451,3.35333333 C1.67346117,3.35333333 1.53846117,3.31104167 1.42575284,3.2275 C1.31366951,3.14333333 1.24012784,3.03083333 1.20616951,2.88958333 C1.15325284,2.66791667 1.30679451,2.46145833 1.66700284,2.27 C1.69471117,2.255 1.71637784,2.24291667 1.73200284,2.23458333 C2.04721117,2.066875 2.25221117,1.9025 2.34616951,1.74208333 C2.44033617,1.58145833 2.45887784,1.38125 2.40116951,1.14125 C2.31762784,0.791666667 2.14408617,0.514166667 1.88033617,0.308541667 C1.61658617,0.102916667 1.30200284,0 0.937211174,0 C0.630752841,0 0.397211174,0.0720833333 0.236377841,0.216666667 C0.0751278409,0.361041667 -0.00362215909,0.5675 0.000127840909,0.836458333" transform="translate(42.983 .05)"/>
    <polygon fill="#696A6A" points="0 0 .883 3.688 1.467 3.688 .584 0" transform="translate(47.301 .149)"/>
    <path fill="#696A6A" d="M0,0.143125 L0.917916667,3.9775 L2.66208333,1.72270833 C2.70875,1.65916667 2.75583333,1.59104167 2.80229167,1.51875 C2.84875,1.44645833 2.89625,1.36520833 2.945,1.274375 L3.55729167,3.83145833 L4.0975,3.83145833 L3.18020833,-1.38777878e-16 L1.399375,2.295 C1.35166667,2.356875 1.30708333,2.42229167 1.265625,2.49125 C1.22395833,2.56020833 1.18604167,2.6325 1.15145833,2.70791667 L0.537708333,0.143125 L0,0.143125 Z" transform="translate(48.726 .006)"/>
    <polygon fill="#696A6A" points="1.54 3.18 .779 0 .194 0 .955 3.18 0 3.18 .122 3.688 2.612 3.688 2.49 3.18" transform="translate(53.148 .149)"/>
    <polygon fill="#696A6A" points="0 0 .883 3.688 2.889 3.688 2.768 3.18 1.346 3.18 1.124 2.255 2.546 2.255 2.42 1.728 .998 1.728 .713 .537 2.135 .537 2.006 0" transform="translate(55.324 .149)"/>
    <path fill="#696A6A" d="M1.09104167,2.11645833 L1.196875,2.11645833 C1.50604167,2.11645833 1.72041667,2.153125 1.83958333,2.22708333 C1.95875,2.30104167 2.04125,2.431875 2.08583333,2.62020833 C2.13458333,2.82333333 2.11458333,2.96666667 2.02520833,3.04958333 C1.93666667,3.133125 1.74479167,3.17458333 1.45020833,3.17458333 L1.344375,3.17458333 L1.09104167,2.11645833 Z M0.942708333,1.65041667 L0.5475,0 L0,0 L0.883125,3.68833333 L1.69833333,3.68833333 C1.93729167,3.68833333 2.11895833,3.6725 2.24291667,3.64041667 C2.36708333,3.60854167 2.46708333,3.55583333 2.54270833,3.48166667 C2.63270833,3.39291667 2.69104167,3.2775 2.718125,3.13645833 C2.74458333,2.995625 2.73770833,2.84104167 2.69770833,2.67333333 C2.62708333,2.37770833 2.50208333,2.14625 2.32291667,1.97895833 C2.14375,1.81208333 1.91416667,1.71145833 1.634375,1.678125 L2.470625,0 L1.80979167,0 L1.00895833,1.65041667 L0.942708333,1.65041667 Z" transform="translate(58 .149)"/>
    <polygon fill="#696A6A" points="0 0 .883 3.688 2.889 3.688 2.768 3.18 1.345 3.18 1.125 2.26 2.547 2.26 2.421 1.734 .999 1.734 .584 0" transform="translate(60.818 .149)"/>
    <path fill="#696A6A" d="M1.59416667,1.44854167 L2.59625,1.44854167 L2.42895833,2.29020833 C2.42083333,2.34375 2.41354167,2.40541667 2.40708333,2.47520833 C2.40104167,2.545 2.396875,2.62270833 2.39416667,2.70833333 C2.35520833,2.62770833 2.31625,2.5525 2.2775,2.48270833 C2.23875,2.413125 2.20083333,2.34895833 2.16375,2.29020833 L1.59416667,1.44854167 Z M2.86354167,0 L2.68291667,0.949791667 L1.25854167,0.949791667 L0.61375,0 L0,0 L2.65854167,3.834375 L3.47979167,0 L2.86354167,0 Z" transform="translate(62.79 .149)"/>
    <path fill="#696A6A" d="M3.33293498,2.88958333 C3.20230998,3.03395833 3.05355998,3.14229167 2.88647665,3.21458333 C2.71980998,3.28645833 2.53480998,3.32291667 2.33168498,3.32291667 C1.93897665,3.32291667 1.58814332,3.19354167 1.28001832,2.935 C0.971476651,2.67625 0.768143318,2.34125 0.669601651,1.92958333 C0.574393318,1.53145833 0.615851651,1.20333333 0.793768318,0.944791667 C0.971684984,0.686041667 1.24335165,0.556458333 1.60814332,0.556458333 C1.82126832,0.556458333 2.03293498,0.595208333 2.24376832,0.6725 C2.45460165,0.749791667 2.66730998,0.866458333 2.88126832,1.02291667 L2.71897665,0.345 C2.53418498,0.229166667 2.34230998,0.1425 2.14376832,0.085625 C1.94501832,0.0285416667 1.73772665,0 1.52168498,0 C1.24668498,0 1.00335165,0.0460416667 0.792309984,0.138541667 C0.581059984,0.230833333 0.408351651,0.366666667 0.274809984,0.546666667 C0.141893318,0.722916667 0.0566849843,0.930625 0.020226651,1.17020833 C-0.0168566823,1.409375 -0.002898349,1.664375 0.0616849843,1.935 C0.126476651,2.20520833 0.234601651,2.45916667 0.385643318,2.696875 C0.536476651,2.93458333 0.722934984,3.14333333 0.944184984,3.32291667 C1.16626832,3.504375 1.40376832,3.64145833 1.65668498,3.735 C1.90980998,3.82791667 2.17085165,3.87479167 2.43939332,3.87479167 C2.65064332,3.87479167 2.84439332,3.843125 3.02085165,3.78 C3.19730998,3.71729167 3.36022665,3.62208333 3.51001832,3.49395833 L3.33293498,2.88958333 Z" transform="translate(66.741 .05)"/>
    <polygon fill="#696A6A" points="0 0 .883 3.688 2.889 3.688 2.767 3.18 1.346 3.18 1.124 2.255 2.546 2.255 2.42 1.728 .998 1.728 .713 .537 2.135 .537 2.006 0" transform="translate(70.13 .149)"/>
    <polygon fill="#66686C" points="4.017 0 0 0 5.587 20.178 9.605 20.178" transform="translate(55.454 7.051)"/>
    <path fill="#66686C" d="M28.9783333,19.625625 C28.6997917,20.0095833 28.2702083,20.2033333 27.6866667,20.2033333 L5.59583333,20.2033333 L4.50166667,16.25125 L8.52125,16.25125 L8.52125,16.2535417 L24.598125,16.2535417 L23.4285417,12.0302083 L7.35125,12.0302083 L7.35270833,12.0389583 L3.33479167,12.0389583 L0,0 L4.02,0 L6.25791667,8.08041667 L24.33,8.08041667 C24.894375,8.08041667 25.425625,8.27291667 25.9252083,8.65791667 C26.42375,9.04333333 26.751875,9.51854167 26.9091667,10.0860417 L29.146875,18.168125 C29.3102083,18.7545833 29.25375,19.24125 28.9783333,19.625625" transform="translate(28.407 6.966)"/>
    <path fill="#66686C" d="M24.0299807,1.35166667 C23.8081057,0.552708333 23.0806057,-1.85037171e-16 22.2512307,-1.85037171e-16 L1.52393908,-1.85037171e-16 C0.959147414,-1.85037171e-16 0.539355748,0.1925 0.263314081,0.577083333 C-0.0125192522,0.962083333 -0.0716859189,1.43833333 0.0860224145,2.005625 L5.14352241,20.21125 L9.16456408,20.21125 L4.64727241,3.95083333 L20.7318557,3.95083333 L25.2491474,20.21125 L29.2693557,20.21125 L24.0299807,1.35166667 Z" transform="translate(2.037 6.96)"/>
    <polygon fill="#27803B" points="5.606 20.228 10.692 10.113 0 0" transform="translate(66.391 6.964)"/>
    <polygon fill="#E9661C" points="5.614 20.228 10.696 10.113 0 0" transform="translate(62.818 6.964)"/>
  </g>
</svg>
